# xmcd
#
# Track frame offsets:
#	150
#	21432
#	39918
#	62544
#	81588
#	102976
#	121353
#	143365
#	160955
#	178442
#	199129
#	217986
#	239570
#
# Disc length: 3491 seconds
#
# Revision: 0
# Processed by: cddbd v1.5.2PL0 Copyright (c) Steve Scherf et al.
# Submitted via: EasyCDDAExtractor 2010.6.0.0
#
DISCID=b90da10d
DTITLE=晓花 - 情话
DYEAR=1900
DGENRE=
TTITLE0=无所谓
TTITLE1=只要有你
TTITLE2=暗香
TTITLE3=何必在一起
TTITLE4=比我幸福
TTITLE5=吻别
TTITLE6=没那么简单
TTITLE7=连哭都是我的错
TTITLE8=九百九十九朵玫瑰
TTITLE9=爱上一个不回家的人
TTITLE10=潇洒地走
TTITLE11=梦里都是你
TTITLE12=为什么你背着我爱别人
EXTD=
EXTT0=
EXTT1=
EXTT2=
EXTT3=
EXTT4=
EXTT5=
EXTT6=
EXTT7=
EXTT8=
EXTT9=
EXTT10=
EXTT11=
EXTT12=
PLAYORDER=
